<svg xmlns="http://www.w3.org/2000/svg" version="1.1" xmlns:xlink="http://www.w3.org/1999/xlink" xmlns:svgjs="http://svgjs.dev/svgjs" width="100%" height="100%" viewBox="0 0 1000 600"><rect width="1000" height="600" x="0" y="0" fill="#ffffff"/><g><rect width="333.3333333333333" height="333.3333333333333" rx="13.333333333333334" ry="13.333333333333334" y="136.00424037238582" fill="#6610f2" transform="matrix(1.0985916248481256,0,0,1.0985916248481256,0,-32.51175660108987)" x="113.78201293945311"/><path d="M307.47389257108955 316.799680676554L307.47389257108955 326.91622631003384L266.4058758776712 326.91622631003384L266.4058758776712 318.86311208054985L266.6064872641707 318.86311208054985Q271.99433593016 319.0923822365494 274.3443550291554 316.7137043680541Q276.7230328976507 314.3350264995589 277.15291444014974 310.3227987695668Q277.55413721314903 306.2819122700748 277.55413721314903 297.19708233859296L277.55413721314903 297.19708233859296L277.55413721314903 271.002967015645Q277.55413721314903 255.12600871267657 272.79678147615846 247.58875233419153Q268.0680845086679 240.0514959557065 257.3210459461892 240.0514959557065L257.3210459461892 240.0514959557065Q251.56063327670063 240.0514959557065 245.88619691571188 242.315538746202Q240.21176055472318 244.5795815366975 235.88428636023175 248.5058329581897L235.88428636023175 248.5058329581897Q237.51783622172852 254.0942930106786 237.51783622172852 261.7175256976634L237.51783622172852 261.7175256976634L237.31722483522893 305.88068949707565Q237.31722483522893 313.50392218406057 236.6867319062302 317.22956221905315L236.6867319062302 317.22956221905315L248.46548617070678 316.799680676554L248.46548617070678 326.91622631003384L207.3974694772884 326.91622631003384L207.3974694772884 318.86311208054985L207.598080863788 318.86311208054985Q212.95727076027734 319.0923822365494 215.3359486287726 316.7137043680541Q217.7146264972679 314.3350264995589 218.1158492702671 310.3227987695668Q218.54573081276624 306.2819122700748 218.54573081276624 297.19708233859296L218.54573081276624 297.19708233859296L218.74634219926583 271.002967015645Q218.94695358576544 254.896738556677 214.30423292677466 247.27350586969217Q209.6615122677839 239.6502731827073 199.1437438613048 239.6502731827073L199.1437438613048 239.6502731827073Q193.3546724223163 239.6502731827073 187.90950621732713 241.9143159732028Q182.435681242838 244.1783587636983 178.5094298213458 248.10461018519052L178.5094298213458 248.10461018519052L178.5094298213458 257.59066288967165L178.5094298213458 305.88068949707565Q178.5094298213458 313.50392218406057 178.1082070483466 317.22956221905315L178.1082070483466 317.22956221905315L189.85830254332325 316.799680676554L189.85830254332325 326.91622631003384L148.9908972364045 326.91622631003384L148.9908972364045 318.86311208054985L149.22016739240402 318.86311208054985Q154.57935728889336 319.0923822365494 156.95803515738865 316.7137043680541Q159.30805425638397 314.3350264995589 159.73793579888311 310.3227987695668Q160.13915857188232 306.2819122700748 160.13915857188232 297.19708233859296L160.13915857188232 297.19708233859296L160.13915857188232 254.4955157836778Q160.13915857188232 247.27350586969217 160.76965150088105 243.34725444819995L160.76965150088105 243.34725444819995L147.15673598840812 244.1783587636983L147.15673598840812 233.86120174371882L147.35734737490773 233.86120174371882Q155.81168437739092 233.86120174371882 160.33976995838194 233.14473250622024Q164.89651430887287 232.42826326872168 166.6446992483694 231.48252387522356Q168.39288418786592 230.5654432512254 170.6569269783614 228.70262323372904L170.6569269783614 228.70262323372904L177.27710273284825 228.70262323372904Q177.87893689234707 231.16727741072418 178.30881843484622 237.78745316521102L178.30881843484622 237.78745316521102Q184.29850126033432 233.2307088147201 191.40587609632018 230.4508081732256Q198.51325093230605 227.6709075317311 205.3340380732925 227.6709075317311L205.3340380732925 227.6709075317311Q214.41886800477442 227.6709075317311 221.21099637626094 230.88068971572474Q228.0317835172474 234.0618131302184 231.9580349387396 239.85088456920693L231.9580349387396 239.85088456920693Q238.75016331022607 234.49169467271756 247.23315908220923 231.08130110222436Q255.68749608469244 227.6709075317311 263.3107287716773 227.6709075317311L263.3107287716773 227.6709075317311Q280.44867293264326 227.6709075317311 288.587763470627 238.1026996297104Q296.75551277811087 248.5058329581897 296.5262426221112 271.002967015645L296.5262426221112 271.002967015645L296.3256312356117 305.88068949707565Q296.3256312356117 313.50392218406057 295.7237970761129 317.22956221905315L295.7237970761129 317.22956221905315L307.47389257108955 316.799680676554ZM413.74060987687835 230.5654432512254L413.74060987687835 238.61855748070937L413.5399984903787 238.61855748070937Q406.9198227358918 240.88260027120486 403.6240642433985 245.92654370319485Q400.328305750905 250.99914590468475 396.0008315564136 262.3480186266622L396.0008315564136 262.3480186266622L372.07075902396116 327.7473306255322Q365.04936049647506 346.7194360344945 360.49261614598413 356.6353702814748Q355.9645305649931 366.55130452845503 349.9748477395051 372.1111058114441Q343.985164914017 377.670907094433 335.5308279115337 377.670907094433L335.5308279115337 377.670907094433Q329.13992231304644 377.670907094433 324.6978130405553 374.3751486019395Q320.2557037680641 371.0793901094461 320.2557037680641 365.089707283958L320.2557037680641 365.089707283958Q320.2557037680641 361.16345586246575 323.06426317905857 357.9823324479721Q325.84416382055304 354.7725502639785 329.9710266285448 354.7725502639785L329.9710266285448 354.7725502639785Q334.2985008230362 354.7725502639785 336.3619322270322 357.86769736997235Q338.42536363102806 360.9628444759662 338.42536363102806 364.0579915819601L338.42536363102806 364.0579915819601Q338.42536363102806 365.089707283958 338.2247522445284 365.92081159945633L338.2247522445284 365.92081159945633Q340.48879503502394 366.3220343724555 343.06808429001876 364.6884845109588Q345.6473735450137 363.0262758799621 348.11202772200875 359.1000244584699L348.11202772200875 359.1000244584699Q352.8693834589993 350.84629884248636 361.12310907498295 327.7473306255322L361.12310907498295 327.7473306255322L331.40396510354196 265.4431657326561Q324.18195518955633 249.53754866018767 321.51668962606163 240.45271872870572L321.51668962606163 240.45271872870572L312.23124830808 240.88260027120486L312.23124830808 230.5654432512254L353.9010991609972 230.5654432512254L353.9010991609972 238.81916886720896L352.038279143501 238.81916886720896Q347.9114163355091 239.22039164020816 345.962620009513 240.68198888470525Q343.985164914017 242.11492735970242 343.985164914017 245.21007446569627L343.985164914017 245.21007446569627Q343.985164914017 249.33693727368805 348.5419092645079 259.0236013646688L348.5419092645079 259.0236013646688L370.0073276199653 304.0178694795794Q372.8732045699595 296.16536663659497 375.1659061299549 289.4592145736083Q377.42994892045056 282.7530625106216 379.2927689379468 277.59448400063195L379.2927689379468 277.59448400063195L385.48306314993454 259.25287152066835Q390.2117601174251 245.41068585219585 393.306907223419 240.25210734220613L393.306907223419 240.25210734220613L381.75742311494184 240.88260027120486L381.75742311494184 230.5654432512254L413.74060987687835 230.5654432512254Z " fill="#ffffff" transform="matrix(1.0985916248481256,0,0,1.0985916248481256,0,-32.51175660108987)"/><path d="M605.7691902984533 235.4214996658478L605.1281646992279 235.4214996658478Q595.9207060921732 235.21753697518517 592.7738531505216 240.3748792962253Q589.6270002088701 245.50308409002787 589.6270002088701 255.78863120487054L589.6270002088701 255.78863120487054L589.6270002088701 322.7175312694418Q589.6270002088701 352.0881587248566 581.3228049461784 364.87953318212556Q573.0477472107242 377.6709076393945 554.1666295608147 377.6709076393945L554.1666295608147 377.6709076393945Q544.5221080451973 377.6709076393945 537.4708264537188 373.35855360824223Q530.4486823894778 369.0753371043277 530.4486823894778 362.3445683124618L530.4486823894778 362.3445683124618Q530.4486823894778 357.7408390089345 533.2750225315167 354.3900233766202Q536.1305002007931 351.03920774430605 541.783180484871 351.03920774430605L541.783180484871 351.03920774430605Q546.823972696961 351.03920774430605 549.2423874576747 354.0695105770076Q551.631664691151 357.0998134097091 551.631664691151 360.68372925992344L551.631664691151 360.68372925992344Q551.631664691151 362.98559391168703 550.8158139285005 365.28745856345074L550.8158139285005 365.28745856345074Q551.864764909051 366.97743514322656 553.8461167612021 367.7058733241644Q555.8274686133531 368.4343115051023 557.5174451931289 368.2303488144397L557.5174451931289 368.2303488144397Q563.1701254772067 368.0263861237771 565.7925029285831 362.78163122102444Q568.4148803799593 357.53687631827177 568.4148803799593 344.7455018610028L568.4148803799593 344.7455018610028L568.4148803799593 236.90751355496104L547.0279353876236 237.75250184484898L547.0279353876236 227.67091742066887L605.7691902984533 227.67091742066887L605.7691902984533 235.4214996658478ZM659.9067159057555 274.6697488547801Q675.4078803961132 274.6697488547801 684.964989330018 283.99375757078474Q694.5220982639229 293.346903814027 694.2889980460228 311.3830331740486L694.2889980460228 311.3830331740486L694.0850353553602 352.904009487507Q694.0850353553602 357.53687631827177 693.4731472833724 364.2385075829002L693.4731472833724 364.2385075829002L707.1095100305293 363.6266195109124L707.1095100305293 374.5240546977428L678.3507706471022 374.5240546977428Q677.5057823572143 370.1242880848781 676.689931594564 364.0345448922376L676.689931594564 364.0345448922376Q662.6165059388444 377.6709076393945 646.8822412305864 377.6709076393945L646.8822412305864 377.6709076393945Q632.6339904114417 377.6709076393945 624.7668580573128 370.85272626581605Q616.8997257031839 364.0345448922376 616.8997257031839 353.34107239606976L616.8997257031839 353.34107239606976Q616.8997257031839 341.80261161001386 625.9032216195759 333.93547925588496Q634.9358550632054 326.06834690175594 648.6596303920747 322.19305577916646Q662.4125432481818 318.2886271293395 676.2528686860013 318.2886271293395L676.2528686860013 318.2886271293395L676.2528686860013 309.48909390361007Q676.2528686860013 297.1056448276663 672.6980903630246 290.404013563038Q669.1141745128101 283.6732447711721 657.5757137267543 283.6732447711721L657.5757137267543 283.6732447711721Q652.126996133339 283.6732447711721 646.7948286488739 286.29562222254845Q641.4335236371711 288.9179996739248 638.9276962947448 293.1138035961269L638.9276962947448 293.1138035961269Q640.3845726566207 294.5998174852401 640.7924980379458 296.05669384711587Q641.2295609465085 297.5427077362291 641.2295609465085 300.252497769318L641.2295609465085 300.252497769318Q641.2295609465085 303.60331340163214 638.8111461857949 306.7501663432837Q636.3927314250813 309.89701928493537 631.7890021215538 309.89701928493537L631.7890021215538 309.89701928493537Q627.7971608900144 309.89701928493537 625.2913335475881 306.7501663432837Q622.7563686779243 303.60331340163214 622.7563686779243 298.99958409810483L622.7563686779243 298.99958409810483Q622.7563686779243 288.5100742925995 633.0419157927669 281.575342810071Q643.3274629076096 274.6697488547801 659.9067159057555 274.6697488547801L659.9067159057555 274.6697488547801ZM676.2528686860013 327.7291859542943Q660.3146412870807 328.57417424418225 647.5232668298119 334.0228918375975Q634.7318923725428 339.50074695825026 634.7318923725428 350.1942194544181L634.7318923725428 350.1942194544181Q634.7318923725428 356.6918880283839 639.5395843667328 360.24666635136066Q644.3764138881601 363.830582201575 651.2820078434512 363.830582201575L651.2820078434512 363.830582201575Q658.8577649252051 363.830582201575 664.6269953182328 361.20820475019866Q670.3962257112609 358.5858272988223 676.2528686860013 353.13710970540706L676.2528686860013 353.13710970540706Q676.0489059953387 350.1942194544181 676.0489059953387 344.30843895244016L676.0489059953387 344.30843895244016Q676.0489059953387 343.2594879718896 676.1654561042886 339.5881595399628Q676.2528686860013 335.9168311080359 676.2528686860013 327.7291859542943L676.2528686860013 327.7291859542943ZM781.7889923402794 274.8737115454427Q787.8787355329201 274.8737115454427 792.1619520368348 278.22452717775684Q796.474306067987 281.575342810071 796.474306067987 288.1021489112743L796.474306067987 288.1021489112743Q796.474306067987 291.45296454358856 793.7353785076604 295.0077428665653Q791.0255884745717 298.59165871677965 786.1887589531442 298.59165871677965L786.1887589531442 298.59165871677965Q781.7889923402794 298.59165871677965 778.7295519803405 295.32825566617794Q775.6992491476389 292.06485261557634 775.6992491476389 287.8690486933742L775.6992491476389 287.8690486933742Q768.7645176651105 288.1021489112743 761.946336291532 293.6382790864021Q755.1281549179536 299.2035467887674 750.5244256144261 307.79911732383425L750.5244256144261 307.79911732383425L750.5244256144261 354.3900233766202Q750.5244256144261 362.1406056217992 749.8834000152009 365.928484162676L749.8834000152009 365.928484162676L762.062886400482 365.49142125411333L762.062886400482 375.776968368956L720.1048471784608 375.776968368956L720.1048471784608 367.58932321521434L720.3088098691234 367.58932321521434Q725.7575274625386 367.8224234331145 728.1759422232525 365.4040086724008Q730.5943569839661 362.98559391168703 731.0022823652913 358.90634009843495Q731.439345273854 354.7979487579455 731.439345273854 345.5613526236533L731.439345273854 345.5613526236533L731.439345273854 302.1464370397564Q731.439345273854 294.8037801759027 732.051233345842 290.8119389443632L732.051233345842 290.8119389443632L718.4148705986851 291.45296454358856L718.4148705986851 281.1674174287458L725.553564771876 281.1674174287458Q732.8962216357298 281.1674174287458 736.0430745773814 279.91450375753266Q739.189927519033 278.6615900863196 742.1328177700219 275.92266252599313L742.1328177700219 275.92266252599313L749.0675492525505 275.92266252599313Q749.8834000152009 282.62429379062155 750.116500233101 292.501915524139L750.116500233101 292.501915524139Q755.5652178265162 285.3632213509479 764.1607883615831 280.11846644819536Q772.7563588966499 274.8737115454427 781.7889923402794 274.8737115454427L781.7889923402794 274.8737115454427Z " fill="#00" transform="matrix(1.0985916248481256,0,0,1.0985916248481256,0,-32.51175660108987)"/></g></svg>