<svg xmlns="http://www.w3.org/2000/svg" version="1.1" xmlns:xlink="http://www.w3.org/1999/xlink" xmlns:svgjs="http://svgjs.com/svgjs" width="1440" height="560" preserveAspectRatio="none" viewBox="0 0 1440 560">
    <g mask="url(&quot;#SvgjsMask1118&quot;)" fill="none">
        <g transform="translate(0, 0)" stroke-linecap="round" stroke="url(#SvgjsLinearGradient1119)">
            <path d="M176 190.17 L176 215.67" stroke-width="25.5"></path>
            <path d="M176 253.92 L176 279.41999999999996" stroke-width="25.5"></path>
            <path d="M176 317.66999999999996 L176 369.83" stroke-width="25.5"></path>
            <path d="M210 267.49 L210 292.51" stroke-width="25.5"></path>
            <path d="M244 150.38 L244 252.38" stroke-width="25.5"></path>
            <path d="M244 290.63 L244 341.63" stroke-width="25.5"></path>
            <path d="M244 379.88 L244 409.62" stroke-width="25.5"></path>
            <path d="M278 165.02 L278 292.52" stroke-width="25.5"></path>
            <path d="M278 330.77 L278 394.98" stroke-width="25.5"></path>
            <path d="M312 161.62 L312 238.12" stroke-width="25.5"></path>
            <path d="M312 276.37 L312 398.38" stroke-width="25.5"></path>
            <path d="M346 181.48 L346 257.98" stroke-width="25.5"></path>
            <path d="M346 296.23 L346 378.52" stroke-width="25.5"></path>
            <path d="M380 102.47 L380 153.47" stroke-width="25.5"></path>
            <path d="M380 191.72 L380 319.22" stroke-width="25.5"></path>
            <path d="M380 357.47 L380 457.53" stroke-width="25.5"></path>
            <path d="M414 84.68 L414 314.18" stroke-width="25.5"></path>
            <path d="M414 352.43 L414 403.43" stroke-width="25.5"></path>
            <path d="M414 441.68 L414 475.32" stroke-width="25.5"></path>
            <path d="M448 95.44 L448 299.44" stroke-width="25.5"></path>
            <path d="M448 337.69 L448 464.56" stroke-width="25.5"></path>
            <path d="M482 186.98 L482 373.02" stroke-width="25.5"></path>
            <path d="M516 231.44 L516 328.56" stroke-width="25.5"></path>
            <path d="M550 177.13 L550 228.13" stroke-width="25.5"></path>
            <path d="M550 266.38 L550 382.87" stroke-width="25.5"></path>
            <path d="M584 175 L584 251.5" stroke-width="25.5"></path>
            <path d="M584 289.75 L584 315.25" stroke-width="25.5"></path>
            <path d="M584 353.5 L584 385" stroke-width="25.5"></path>
            <path d="M618 155.28 L618 231.78" stroke-width="25.5"></path>
            <path d="M618 270.03 L618 321.03" stroke-width="25.5"></path>
            <path d="M618 359.28 L618 404.72" stroke-width="25.5"></path>
            <path d="M652 174.86 L652 251.36" stroke-width="25.5"></path>
            <path d="M652 289.61 L652 315.11" stroke-width="25.5"></path>
            <path d="M652 353.36 L652 385.14" stroke-width="25.5"></path>
            <path d="M686 93.88 L686 466.12" stroke-width="25.5"></path>
            <path d="M720 135.99 L720 237.99" stroke-width="25.5"></path>
            <path d="M720 276.24 L720 327.24" stroke-width="25.5"></path>
            <path d="M720 365.49 L720 424.01" stroke-width="25.5"></path>
            <path d="M754 121.99 L754 438.01" stroke-width="25.5"></path>
            <path d="M788 265.06 L788 294.94" stroke-width="25.5"></path>
            <path d="M822 241.84 L822 318.16" stroke-width="25.5"></path>
            <path d="M856 162.93 L856 239.43" stroke-width="25.5"></path>
            <path d="M856 277.68 L856 397.07" stroke-width="25.5"></path>
            <path d="M890 219.69 L890 245.19" stroke-width="25.5"></path>
            <path d="M890 283.44 L890 340.31" stroke-width="25.5"></path>
            <path d="M924 111.25 L924 213.25" stroke-width="25.5"></path>
            <path d="M924 251.5 L924 448.75" stroke-width="25.5"></path>
            <path d="M958 177.2 L958 253.7" stroke-width="25.5"></path>
            <path d="M958 291.95 L958 317.45" stroke-width="25.5"></path>
            <path d="M958 355.7 L958 382.8" stroke-width="25.5"></path>
            <path d="M992 230.16 L992 329.85" stroke-width="25.5"></path>
            <path d="M1026 77.69 L1026 103.19" stroke-width="25.5"></path>
            <path d="M1026 141.44 L1026 482.31" stroke-width="25.5"></path>
            <path d="M1060 226.87 L1060 252.37" stroke-width="25.5"></path>
            <path d="M1060 290.62 L1060 333.13" stroke-width="25.5"></path>
            <path d="M1094 236.05 L1094 323.95" stroke-width="25.5"></path>
            <path d="M1128 250.63 L1128 309.38" stroke-width="25.5"></path>
            <path d="M1162 244.16 L1162 315.83" stroke-width="25.5"></path>
            <path d="M1196 147.67 L1196 249.67" stroke-width="25.5"></path>
            <path d="M1196 287.91999999999996 L1196 338.91999999999996" stroke-width="25.5"></path>
            <path d="M1196 377.16999999999996 L1196 412.33" stroke-width="25.5"></path>
            <path d="M1230 110.51 L1230 238.01" stroke-width="25.5"></path>
            <path d="M1230 276.26 L1230 327.26" stroke-width="25.5"></path>
            <path d="M1230 365.51 L1230 449.49" stroke-width="25.5"></path>
            <path d="M1264 218.75 L1264 341.25" stroke-width="25.5"></path>
        </g>
    </g>
    <defs>
        <mask id="SvgjsMask1118">
            <rect width="1440" height="560" fill="#ffffff"></rect>
        </mask>
        <linearGradient x1="144" y1="280" x2="1296" y2="280" gradientUnits="userSpaceOnUse" id="SvgjsLinearGradient1119">
            <stop stop-color="#3a7cc3" offset="0"></stop>
            <stop stop-color="#dd1133" offset="1"></stop>
        </linearGradient>
    </defs>
</svg>