<svg xmlns="http://www.w3.org/2000/svg" version="1.1" xmlns:xlink="http://www.w3.org/1999/xlink" xmlns:svgjs="http://svgjs.com/svgjs" width="2000" height="500" preserveAspectRatio="none" viewBox="0 0 2000 500">
    <g mask="url(&quot;#SvgjsMask1095&quot;)" fill="none">
        <rect width="2000" height="500" x="0" y="0" fill="rgba(11, 10, 95, 1)"></rect>
        <path d="M0,645.458C119.235,634.667,214.445,554.886,318.069,494.925C427.24,431.754,574.709,401.051,623.434,284.713C672.159,168.375,610.255,34.88,559.02,-80.375C516.822,-175.301,429.915,-235.184,358.702,-310.817C290.941,-382.784,240.128,-471.356,150.88,-513.849C53.007,-560.449,-58.459,-582.865,-164.395,-559.878C-274.098,-536.074,-369.955,-469.1,-444.035,-384.758C-518.431,-300.057,-572.535,-196.048,-582.583,-83.763C-592.366,25.568,-535.298,124.277,-498.85,227.817C-458.47,342.525,-450.597,477.989,-357.353,556.053C-261.257,636.505,-124.818,656.754,0,645.458" fill="#351e3e"></path>
        <path d="M2000 1185.576C2125.619 1172.3890000000001 2224.34 1081.534 2323.225 1002.948 2413.291 931.371 2491.299 850.38 2547.8469999999998 750.193 2608.581 642.5889999999999 2684.825 526.19 2660.718 405.003 2636.763 284.58000000000004 2497.323 230.97699999999998 2424.848 131.86700000000002 2343.257 20.288999999999987 2334.395-153.875 2209.197-212.46000000000004 2084.1-270.99699999999996 1939.017-197.88400000000001 1807.018-157.23800000000006 1676.621-117.08500000000004 1539.757-79.29499999999996 1448.2089999999998 21.87099999999998 1355.786 124.005 1294.7820000000002 262.279 1302.958 399.78 1310.675 529.547 1433.8600000000001 615.673 1490.478 732.691 1545.353 846.105 1535.836 992.019 1630.0059999999999 1075.721 1728.152 1162.9569999999999 1869.406 1199.286 2000 1185.576" fill="#6d3e80"></path>
    </g>
    <defs>
        <mask id="SvgjsMask1095">
            <rect width="2000" height="500" fill="#ffffff"></rect>
        </mask>
    </defs>
</svg>